<svg xmlns="http://www.w3.org/2000/svg" width="875" height="584" viewBox="0 0 875 584">
<g>
<path d="M 526.50 438.30 C513.66,437.14 498.05,432.64 481.57,425.34 C449.89,411.33 418.52,384.72 399.26,355.50 C396.72,351.65 394.51,348.32 394.35,348.11 C394.18,347.89 393.37,348.28 392.54,348.96 C391.32,349.98 390.99,353.83 390.77,369.86 L 390.50 389.50 L 381.00 389.50 L 371.50 389.50 L 371.24 345.25 L 370.98 301.00 L 365.50 301.00 L 360.02 301.00 L 359.76 345.25 L 359.50 389.50 L 350.50 389.50 L 341.50 389.50 L 341.24 345.25 L 340.98 301.00 L 336.49 301.00 L 332.00 301.00 L 332.00 345.50 L 332.00 390.00 L 323.11 390.00 C315.92,390.00 314.10,389.70 313.61,388.42 C313.27,387.55 313.00,376.97 313.00,364.92 L 313.00 343.00 L 307.88 343.00 C303.46,343.00 302.84,343.24 303.35,344.75 C303.67,345.71 305.13,349.88 306.60,354.00 C310.00,363.52 310.44,376.63 307.64,384.76 C301.07,403.85 283.99,415.46 262.50,415.44 C243.84,415.43 229.76,409.05 216.07,394.42 C200.43,377.69 190.40,356.52 187.90,334.90 C186.84,325.69 186.90,322.84 188.41,313.03 C192.52,286.21 200.98,269.41 229.80,230.84 C247.34,207.36 253.19,198.45 259.58,185.50 C266.19,172.09 268.00,165.26 268.00,153.74 C268.00,140.74 265.96,138.02 253.94,135.00 C249.42,133.87 249.34,133.77 244.19,123.42 C241.34,117.67 239.00,112.76 239.00,112.49 C239.00,111.67 243.29,111.95 247.17,113.03 C254.99,115.20 265.29,127.56 276.32,148.00 C284.17,162.56 285.91,175.23 282.10,190.09 C277.93,206.31 269.10,221.52 246.16,251.99 C225.85,278.96 219.79,288.11 213.40,301.42 C202.05,325.11 199.29,348.85 205.47,369.60 C208.36,379.31 219.22,388.31 232.79,392.23 C241.72,394.81 257.13,394.99 266.00,392.61 C274.21,390.42 281.80,385.46 286.95,378.95 C290.61,374.31 294.00,366.15 294.00,361.96 C294.00,359.71 284.28,355.40 274.37,353.25 L 266.67 351.58 L 262.34 342.42 C259.95,337.39 258.00,332.59 258.00,331.77 C258.00,330.65 259.61,330.14 264.39,329.76 C275.57,328.86 284.10,322.65 287.54,312.89 C289.88,306.27 289.48,303.30 286.02,301.51 C270.67,293.57 251.00,307.12 251.00,325.63 C251.00,329.06 251.45,333.14 252.00,334.68 C254.02,340.39 246.04,329.87 241.69,321.10 C237.84,313.34 237.53,312.09 237.52,304.60 C237.52,298.12 237.97,295.66 239.77,292.28 C242.46,287.22 247.83,281.65 252.22,279.39 C256.45,277.20 266.42,276.48 271.93,277.98 C283.14,281.01 299.81,305.53 303.36,324.23 L 304.46 330.00 L 308.73 330.00 L 313.00 330.00 L 313.00 315.56 L 313.00 301.13 L 309.75 300.81 C306.54,300.50 306.50,300.43 306.20,294.75 L 305.90 289.00 L 380.95 289.00 L 456.00 289.00 L 456.00 291.98 C456.00,294.25 455.47,295.08 453.75,295.47 C452.51,295.75 438.58,296.32 422.80,296.74 C401.42,297.31 393.77,297.83 392.80,298.80 C391.13,300.47 390.25,331.65 391.83,333.23 C392.55,333.95 395.72,332.58 402.19,328.75 C412.98,322.36 417.49,320.00 418.92,320.00 C419.98,320.00 423.00,325.12 423.00,326.91 C423.00,327.47 420.30,329.76 417.00,332.00 C413.70,334.24 411.00,336.52 411.00,337.07 C411.00,339.99 422.23,358.01 432.15,371.00 C439.15,380.17 461.90,402.26 472.00,409.68 C489.02,422.20 505.59,430.69 521.50,435.05 C525.90,436.26 530.40,437.61 531.50,438.06 C533.57,438.89 533.21,438.91 526.50,438.30 ZM 582.50 433.38 C573.30,432.42 557.84,428.57 548.50,424.93 C511.61,410.53 477.76,380.51 457.14,343.92 C455.41,340.85 454.00,337.83 454.00,337.21 C454.00,336.59 456.06,334.88 458.58,333.40 C462.51,331.10 464.39,330.70 471.83,330.57 C487.28,330.30 495.80,323.70 494.76,312.82 C494.34,308.47 493.68,307.10 490.72,304.39 C487.32,301.26 481.67,298.98 477.50,299.04 C473.11,299.10 464.75,303.01 449.18,312.28 C440.20,317.63 432.46,322.00 431.98,322.00 C430.71,322.00 428.00,317.83 428.00,315.87 C428.00,314.71 435.27,310.03 451.10,301.01 C463.80,293.77 476.01,287.20 478.22,286.42 C482.92,284.76 490.96,284.58 496.12,286.02 C505.39,288.59 512.13,297.03 512.21,306.15 C512.31,318.90 503.36,328.30 485.35,334.38 C476.59,337.33 475.94,338.45 479.05,345.15 C485.95,360.02 500.58,379.58 515.38,393.73 C534.06,411.59 555.51,422.92 579.36,427.54 C587.48,429.11 613.49,429.76 619.58,428.54 C622.45,427.96 622.46,427.97 620.00,429.09 C612.40,432.53 594.24,434.61 582.50,433.38 ZM 598.32 422.61 C589.82,419.85 582.82,413.83 579.26,406.21 C577.69,402.86 577.49,397.35 577.21,350.00 C577.01,316.82 576.53,297.13 575.90,296.50 C575.30,295.90 562.64,295.30 544.20,295.00 L 513.50 294.50 L 513.50 292.00 L 513.50 289.50 L 544.00 289.00 C560.78,288.73 575.06,288.14 575.75,287.69 C576.70,287.08 577.00,280.53 577.00,260.63 C577.00,227.77 576.74,228.42 587.14,235.51 C598.97,243.57 598.00,240.89 598.00,265.44 C598.00,281.50 598.31,287.09 599.25,287.69 C599.94,288.14 621.42,288.73 647.00,289.00 L 693.50 289.50 L 693.50 292.00 L 693.50 294.50 L 647.00 295.00 C621.42,295.27 599.94,295.86 599.25,296.31 C598.28,296.94 598.00,309.05 598.00,351.31 C598.00,400.93 598.15,405.79 599.75,408.93 C602.24,413.82 605.79,416.03 612.06,416.60 C623.28,417.62 629.95,409.69 632.22,392.64 C632.86,387.77 633.91,383.59 634.55,383.34 C635.19,383.10 639.20,384.56 643.47,386.58 L 651.24 390.27 L 650.62 394.73 C649.80,400.73 644.60,410.22 639.72,414.63 C637.53,416.61 633.21,419.40 630.12,420.84 C625.31,423.07 622.91,423.48 613.50,423.71 C606.28,423.88 601.07,423.50 598.32,422.61 ZM 533.74 399.23 L 525.98 394.50 L 526.24 349.00 L 526.50 303.50 L 535.50 303.50 L 544.50 303.50 L 544.50 353.49 C544.50,397.14 544.31,403.50 543.00,403.71 C542.17,403.85 538.01,401.83 533.74,399.23 ZM 641.00 371.70 L 632.50 366.44 L 632.24 336.09 C632.05,314.53 632.30,305.34 633.11,304.37 C634.37,302.85 648.54,302.42 650.76,303.83 C652.37,304.85 652.11,376.14 650.50,376.65 C649.95,376.82 645.67,374.59 641.00,371.70 ZM 529.73 280.91 C524.29,279.63 521.26,277.31 519.98,273.45 C517.71,266.57 523.26,260.90 532.93,260.20 C550.50,258.93 556.97,275.66 540.76,280.48 C535.08,282.16 535.06,282.17 529.73,280.91 ZM 633.20 279.33 C629.96,277.73 627.00,273.56 627.00,270.60 C627.00,265.00 634.15,259.98 642.07,260.02 C647.34,260.05 654.41,263.02 655.92,265.85 C658.56,270.78 656.42,276.70 650.99,279.51 C647.16,281.49 637.38,281.39 633.20,279.33 Z" fill="rgba(0,0,0,1)"/>
</g>
</svg>